# xmcd
#
# Track frame offsets:
#	150
#	16500
#	34823
#	46732
#	64777
#	77693
#	95179
#	113097
#	132011
#	146449
#	168483
#	183929
#	200549
#
# Disc length: 2893 seconds
#
# Revision: 1
# Processed by: cddbd v1.5.1PL0 Copyright (c) Steve Scherf et al.
# Submitted via: audiograbber 1.80
#
DISCID=a40b4b0d
DTITLE=Curly Musgrave - Range and Romance
DYEAR=1900
DGENRE=
TTITLE0=Wild in the West
TTITLE1=Return to the Fifty
TTITLE2=Range and Romance
TTITLE3=Mail Order Bride
TTITLE4=Cowboy in a Hard Place
TTITLE5=Curly's Song
TTITLE6=The Irish Drover
TTITLE7=Lonely Lady Blue
TTITLE8=Carolina
TTITLE9=The Men Who Ride No More
TTITLE10=Just One Moment
TTITLE11=Father to Father
TTITLE12=Same Kind of Horses
EXTD=
EXTT0=
EXTT1=
EXTT2=
EXTT3=
EXTT4=
EXTT5=
EXTT6=
EXTT7=
EXTT8=
EXTT9=
EXTT10=
EXTT11=
EXTT12=
PLAYORDER=
